<svg width="74" height="80" viewBox="0 0 74 80" fill="none" xmlns="http://www.w3.org/2000/svg">
<path d="M42.5886 64.4998C38.6411 66.4529 34.7448 66.4751 30.7973 64.5109C30.6713 64.8136 30.557 65.0499 30.4664 65.2973C28.8906 69.5026 27.3147 73.7115 25.7468 77.9205C25.4986 78.585 25.2858 79.2607 24.4152 79.4121C23.58 79.5597 23.1348 79.017 22.67 78.5075C20.1565 75.7348 17.6233 72.9768 15.1296 70.1856C14.708 69.7167 14.3219 69.6059 13.6995 69.7241C9.81111 70.4588 5.91879 71.1603 2.02253 71.8618C0.379714 72.1572 -0.376688 71.3043 0.182735 69.8016C2.67256 63.1264 5.18208 56.4548 7.64433 49.7685C7.82949 49.2664 7.82161 48.6387 7.70342 48.1071C7.05733 45.2051 5.45391 42.6945 3.98444 40.1174C3.09015 38.552 2.29042 36.8943 1.78615 35.1922C0.990355 32.5192 1.59705 29.8793 3.06258 27.5423C5.64302 23.4256 7.5222 19.0837 8.86167 14.4834C10.0199 10.5071 12.9549 8.02231 17.1506 6.84085C18.2458 6.53072 19.3371 6.18736 20.452 5.94368C23.7061 5.23112 26.5347 3.66199 29.4421 2.21101C31.0849 1.39137 32.8578 0.719414 34.6503 0.261599C37.0337 -0.347592 39.3778 0.180373 41.6037 1.09231C42.4113 1.4246 43.2228 1.76427 43.9635 2.20362C47.3988 4.24533 51.1217 5.61509 55.0653 6.51595C55.9753 6.72271 56.8499 7.06238 57.7284 7.3799C61.7468 8.83457 63.8584 11.8214 64.8749 15.5394C65.9386 19.4419 67.5301 23.1007 69.756 26.5491C71.2058 28.7939 72.0922 31.238 71.8204 33.9406C71.6037 36.0746 70.6976 37.9797 69.5906 39.811C67.999 42.4471 66.3286 45.0537 65.6628 48.0701C65.5406 48.6276 65.5328 49.2811 65.7258 49.8091C68.1644 56.4437 70.6503 63.0636 73.1204 69.6908C73.7429 71.356 73.0259 72.1719 71.1979 71.847C67.4159 71.1714 63.6378 70.4957 59.8676 69.761C59.0679 69.6059 58.5951 69.7573 58.0751 70.348C55.6523 73.0839 53.1703 75.7754 50.7081 78.4817C49.3607 79.9585 48.297 79.7776 47.6194 77.9648C45.9569 73.5195 44.3023 69.078 42.5886 64.4998ZM4.24052 33.0434C4.37841 33.7449 4.3981 34.4907 4.67782 35.1368C5.30421 36.5878 5.93849 38.0499 6.78156 39.3938C8.55438 42.2182 9.92536 45.1756 10.7409 48.3618C10.9063 49.0042 11.1545 49.6245 11.3397 50.2632C12.3246 53.6747 14.6371 55.8936 18.2812 56.7465C23.056 57.8615 27.5432 59.5709 31.7192 62.004C32.0423 62.1923 32.4047 62.3178 32.7514 62.4692C35.3594 63.6211 37.9753 63.6433 40.5754 62.4692C41.6864 61.9671 42.7934 61.4502 43.8492 60.8594C46.4888 59.3789 49.2662 58.227 52.2603 57.5292C53.3437 57.2781 54.3995 56.9311 55.4671 56.632C58.666 55.7385 60.7974 53.8297 61.7901 50.8244C62.0068 50.1672 62.2708 49.5211 62.4441 48.8565C63.3463 45.3786 64.7645 42.1074 66.7856 39.0615C67.3095 38.2714 67.7271 37.4111 68.1487 36.562C69.3069 34.2249 69.3108 31.8767 68.1762 29.5286C67.8729 28.9009 67.5892 28.2585 67.2032 27.6789C64.8709 24.1936 63.2281 20.4498 62.2274 16.4439C61.2347 12.4639 58.6109 9.99388 54.3483 9.07086C54.234 9.04502 54.1237 9.00071 54.0094 8.97856C49.9989 8.09985 46.2366 6.66363 42.7501 4.59608C42.4546 4.41886 42.1276 4.28594 41.8203 4.12349C38.3889 2.26269 34.9615 2.25162 31.5262 4.1198C30.6358 4.60346 29.71 5.02805 28.8315 5.52279C26.5505 6.81132 24.1237 7.76756 21.5432 8.38414C20.5189 8.62782 19.5183 8.95641 18.494 9.20747C14.645 10.1526 12.2458 12.4306 11.2372 16.0341C10.8354 17.4703 10.3508 18.8881 9.91748 20.3169C9.14138 22.8939 7.6207 25.1313 6.26154 27.4463C5.24512 29.1852 4.31931 30.9648 4.24052 33.0434ZM28.2996 63.0636C26.2117 62.2181 24.1985 61.3283 22.1263 60.5936C20.5938 60.0472 18.9746 59.7149 17.4027 59.2645C13.9753 58.2861 11.1663 56.584 9.63383 53.3941C9.60231 53.3276 9.51564 53.287 9.38563 53.1726C7.43159 58.4079 5.49725 63.5953 3.53927 68.8528C3.82292 68.838 3.94111 68.8454 4.05142 68.8232C7.45129 68.1956 10.8551 67.5827 14.251 66.9292C15.2202 66.7409 15.9175 66.944 16.5675 67.6787C18.6634 70.0564 20.8223 72.3897 22.9575 74.7416C23.1585 74.9594 23.3751 75.1662 23.6667 75.4615C25.211 71.3301 26.7041 67.339 28.2996 63.0636ZM49.6877 75.4911C50.062 75.096 50.3141 74.8339 50.5584 74.5644C52.6739 72.2347 54.8092 69.9198 56.8972 67.5679C57.4605 66.9329 58.0948 66.7483 58.9182 66.9034C60.8171 67.2615 62.7199 67.6085 64.6227 67.9556C66.3128 68.262 67.999 68.5648 69.8269 68.8934C67.8414 63.5768 65.911 58.4005 63.9333 53.1061C63.7796 53.3276 63.693 53.431 63.6339 53.5455C62.3023 56.1853 60.0764 57.8984 57.1848 58.8473C55.2189 59.4897 53.2097 60.0213 51.2123 60.5751C49.0298 61.177 47.0482 62.1517 45.1296 63.2814C46.6463 67.3427 48.1394 71.3338 49.6877 75.4911Z" fill="#003011"/>
<path d="M36.6988 9.18901C50.7199 9.21486 62.125 19.9366 62.0935 33.0619C62.062 46.2093 50.6214 56.8757 36.6043 56.824C22.5518 56.7686 11.2097 46.0801 11.253 32.9327C11.3003 19.8406 22.7487 9.16317 36.6988 9.18901ZM36.687 11.8362C24.2694 11.8251 14.1053 21.3248 14.0816 32.9659C14.058 44.666 24.1749 54.1657 36.6634 54.1768C49.1125 54.1842 59.2373 44.7325 59.2688 33.073C59.3003 21.3913 49.1519 11.8473 36.687 11.8362Z" fill="#003011"/>
<path d="M33.3777 32.6593C36.6909 29.5543 39.8899 26.5563 43.0889 23.5584C44.2865 22.436 44.8302 22.4323 46.016 23.5399C47.1191 24.57 48.2261 25.5964 49.3174 26.6376C50.1801 27.4572 50.1959 28.1181 49.3449 28.9193C44.4441 33.5196 39.5393 38.1162 34.6305 42.7091C33.7796 43.5029 33.0429 43.5029 32.1998 42.7165C29.4697 40.169 26.7474 37.6178 24.0291 35.0629C23.1663 34.2506 23.1624 33.5971 24.0133 32.7849C25.1913 31.6662 26.3771 30.5585 27.5668 29.4546C28.4651 28.6239 29.1348 28.6276 30.0527 29.4878C31.1558 30.5179 32.2353 31.5702 33.3777 32.6593ZM33.4014 39.9105C37.6956 35.8899 42.0567 31.8102 46.3745 27.7673C45.8032 27.2025 45.1847 26.5933 44.4323 25.8549C44.2077 26.1318 44.0422 26.4013 43.8137 26.6117C40.8078 29.4399 37.794 32.2643 34.7763 35.0887C33.7126 36.0819 33.102 36.0819 32.0265 35.0739C30.9667 34.0808 29.9188 33.0802 28.8827 32.0981C28.1932 32.7369 27.555 33.3313 26.9601 33.8851C29.1072 35.901 31.2898 37.939 33.4014 39.9105Z" fill="#003011"/>
</svg>
