<svg width="79" height="76" viewBox="0 0 79 76" fill="none" xmlns="http://www.w3.org/2000/svg">
<path d="M58.7518 75.0606C57.0853 74.6618 55.3598 74.407 53.7643 73.8422C46.1293 71.1433 41.3467 63.7222 42.237 56.1129C43.1431 48.3558 49.5371 42.1089 57.7117 40.9902C69.0538 39.4395 79.0525 47.8131 78.6783 58.5459C78.3867 66.8715 71.4806 73.9418 62.6914 74.9166C62.5102 74.935 62.3368 75.0089 62.1595 75.0569C61.0249 75.0605 59.8903 75.0606 58.7518 75.0606ZM60.4458 71.9334C68.6993 71.9186 75.369 65.6347 75.3454 57.8925C75.3217 50.1465 68.6284 43.8921 60.3789 43.9106C52.149 43.9254 45.4478 50.2388 45.4635 57.9589C45.4754 65.6716 52.2002 71.9481 60.4458 71.9334Z" fill="#003011"/>
<path d="M35.4925 71.9519C33.7906 71.9519 32.0847 71.9593 30.3828 71.9519C27.9796 71.9371 26.7859 71.003 26.4196 68.7878C26.0335 66.4618 25.6789 64.1321 25.3519 61.7987C25.2692 61.2191 25.0643 60.8683 24.4734 60.5914C23.2718 60.0228 22.1018 59.3804 20.979 58.6863C20.459 58.3651 20.0611 58.3466 19.5016 58.5645C17.2127 59.4653 14.9002 60.3145 12.5995 61.1822C10.3499 62.0276 8.73077 61.5107 7.53314 59.5687C5.26393 55.8877 2.99472 52.2104 0.725514 48.5258C-0.495761 46.5431 -0.184532 45.0257 1.73011 43.6079C3.74719 42.12 5.76426 40.6321 7.80103 39.1664C8.19105 38.8858 8.29348 38.6015 8.27378 38.1474C8.22257 36.8108 8.21863 35.4669 8.2659 34.1304C8.28166 33.6541 8.19893 33.3477 7.77345 33.0412C5.71304 31.5644 3.68021 30.0544 1.63556 28.5591C-0.141198 27.2558 -0.472125 25.6645 0.662479 23.8185C2.9829 20.0489 5.30333 16.2793 7.63163 12.5134C8.73471 10.7301 10.3381 10.2095 12.3749 10.9701C14.8056 11.8783 17.2364 12.7866 19.6553 13.7244C20.1005 13.8979 20.4156 13.8868 20.8332 13.6431C22.0899 12.9047 23.4018 12.2512 24.6586 11.5128C24.9501 11.343 25.2337 10.9775 25.285 10.6673C25.7065 8.16781 26.065 5.6609 26.455 3.15768C26.7229 1.42979 28.0781 0.303716 29.9573 0.300024C34.7951 0.288948 39.633 0.285256 44.4747 0.300024C46.2791 0.303716 47.6264 1.35964 47.9179 3.03584C48.3277 5.40984 48.6822 7.79122 49.0171 10.1726C49.1235 10.9184 49.352 11.4205 50.1832 11.7639C51.3572 12.2512 52.4485 12.938 53.5279 13.6025C53.9692 13.872 54.304 13.8942 54.7768 13.7096C57.1445 12.794 59.5319 11.9079 61.9114 11.0181C64.0782 10.2058 65.6737 10.7227 66.8438 12.6204C69.1287 16.3236 71.4098 20.023 73.6908 23.7299C74.8963 25.6867 74.5654 27.2521 72.6586 28.6477C70.6573 30.1134 68.6678 31.594 66.6507 33.0412C66.2292 33.344 66.1031 33.6394 66.1622 34.1267C66.2489 34.8282 66.2568 35.5445 66.2331 36.2496C66.1937 37.4422 65.3625 38.1695 64.1176 37.9775C60.7807 37.468 57.5069 37.6416 54.2528 38.5129C53.0355 38.8378 52.0742 38.0108 52.1294 36.7998C52.4327 29.8255 47.3822 23.8074 40.0427 22.397C31.7774 20.8057 23.4176 26.4324 22.3972 34.2707C21.3926 42.013 26.6756 48.7214 34.8858 50.0653C35.8313 50.2204 36.8201 50.2093 37.7853 50.1687C39.1326 50.106 40.0427 51.0179 39.6842 52.2363C37.8838 58.3873 38.8687 64.1026 42.6271 69.4192C43.5017 70.656 42.7728 71.9076 41.1615 71.9408C39.2784 71.9814 37.3874 71.9519 35.4925 71.9519ZM35.977 53.3476C30.8437 52.875 26.5535 50.9108 23.2443 47.2262C19.9311 43.5341 18.5995 39.2402 19.0249 34.4516C19.7104 26.7204 26.7505 19.9787 34.9724 19.1517C39.4399 18.7013 43.5844 19.5394 47.3191 21.8912C52.2633 25.0073 54.9186 29.4378 55.5214 34.8504C58.0112 34.7396 60.4222 34.6288 62.8687 34.5181C62.8411 34.1599 62.853 33.7464 62.7663 33.3551C62.5614 32.4468 62.9121 31.8081 63.696 31.2654C64.9134 30.4236 66.0874 29.5264 67.2771 28.6514C68.526 27.7357 69.767 26.8164 71.0473 25.8749C68.6008 21.8358 66.1937 17.8595 63.7709 13.861C63.436 13.9717 63.1602 14.0603 62.8845 14.1563C60.2134 15.1163 57.5345 16.0504 54.8792 17.0509C53.9652 17.3943 53.2797 17.2171 52.4761 16.7334C50.8254 15.7402 49.1116 14.8246 47.3703 13.9717C46.5745 13.5804 46.09 13.1041 45.9797 12.266C45.8221 11.0624 45.629 9.85878 45.4439 8.65886C45.1839 6.96051 44.916 5.26216 44.6441 3.50104C39.7039 3.50104 34.8267 3.50104 29.9179 3.50104C29.8628 3.73364 29.8037 3.95147 29.7643 4.173C29.3152 6.87189 28.8582 9.57079 28.4248 12.2734C28.3066 13.0007 27.9757 13.5028 27.2508 13.872C25.3835 14.8283 23.5437 15.8325 21.7314 16.8737C21.0499 17.2651 20.4314 17.3943 19.6789 17.0989C17.8115 16.3679 15.9284 15.6738 14.0492 14.9686C12.9816 14.5662 11.914 14.1748 10.8188 13.7687C8.3053 17.7856 5.83911 21.7251 3.35716 25.6867C3.62111 25.8971 3.82204 26.0596 4.03084 26.2183C6.30398 27.9351 8.56925 29.6593 10.8542 31.3614C11.5082 31.8487 11.7288 32.4284 11.7052 33.2111C11.65 35.1531 11.65 37.0988 11.7052 39.0372C11.7288 39.8162 11.5279 40.4069 10.8582 40.8832C9.67234 41.725 8.5141 42.5963 7.34404 43.4529C6.03215 44.4165 4.71632 45.3838 3.37686 46.3696C5.81941 50.405 8.22257 54.3814 10.6494 58.3873C10.9527 58.2876 11.2048 58.21 11.453 58.1214C14.1714 57.143 16.8936 56.1683 19.608 55.1752C20.3723 54.8946 21.0302 54.9684 21.7472 55.3819C23.5594 56.4268 25.4071 57.4126 27.2666 58.3799C27.9127 58.7159 28.3066 59.1552 28.4091 59.8382C28.5785 60.9902 28.7479 62.1458 28.9251 63.2977C29.2009 65.092 29.4846 66.8864 29.7722 68.7398C32.6441 68.7398 35.4412 68.7398 38.3408 68.7398C35.6697 63.8663 34.9409 58.7491 35.977 53.3476Z" fill="#003011"/>
<path d="M57.2981 62.072C57.4478 61.8283 57.5502 61.5366 57.7551 61.3446C60.9107 58.3651 64.0703 55.3856 67.2653 52.4431C67.6553 52.0849 68.262 51.7563 68.786 51.7342C70.0545 51.6825 70.7833 53.0855 70.086 54.0971C69.9284 54.326 69.7078 54.5254 69.499 54.7211C65.8943 58.1067 62.2856 61.4849 58.6809 64.8668C57.4793 65.9929 56.715 66.0003 55.5332 64.8927C53.5082 62.9987 51.4951 61.0936 49.4583 59.2069C48.8831 58.6753 48.6389 58.0698 48.9146 57.3535C49.3322 56.268 50.7505 56.0391 51.7078 56.9178C53.2915 58.3688 54.8437 59.8456 56.4038 61.3188C56.6087 61.5145 56.7702 61.7544 56.9514 61.9723C57.0657 62.0055 57.1839 62.0387 57.2981 62.072Z" fill="#003011"/>
</svg>
