<svg width="81" height="77" viewBox="0 0 81 77" fill="none" xmlns="http://www.w3.org/2000/svg">
<path d="M64.9453 12.6499C62.7549 13.2332 60.6551 13.8387 58.5277 14.3335C57.7398 14.5181 56.8573 14.5956 56.0655 14.4664C53.9026 14.1082 52.3898 12.3988 52.3031 10.4162C52.2125 8.37077 53.5599 6.56535 55.6912 5.982C59.2211 5.01468 62.7628 4.08428 66.3005 3.13542C68.9519 2.42285 71.5993 1.69182 74.2585 1.00141C77.5796 0.137465 80.4319 2.17179 80.4358 5.40973C80.4476 11.6124 80.4516 17.8114 80.4319 24.014C80.424 26.329 78.5684 28.1971 76.1653 28.3965C73.7621 28.5959 71.6151 27.06 71.1384 24.7894C71.0714 24.4571 71.0635 24.1137 71.0596 23.7741C71.0517 22.6221 71.0556 21.4739 71.0556 20.1005C70.772 20.4549 70.5986 20.658 70.445 20.8721C67.5257 24.8964 64.6144 28.9245 61.1121 32.539C49.313 44.7191 34.8232 52.4909 17.6505 55.8729C13.4902 56.6925 9.27881 57.1429 5.03586 57.2869C2.2939 57.3792 0.146824 55.559 0.0325756 53.126C-0.0816727 50.656 1.90782 48.6106 4.56311 48.5109C13.5296 48.1749 22.1061 46.2846 30.3084 42.8768C35.1462 40.8683 39.6886 38.3799 43.9276 35.4041C44.1718 35.2305 44.4121 35.0496 44.6643 34.8872C45.4207 34.3998 46.1889 34.4847 46.6538 35.1013C47.0989 35.6883 46.9926 36.4009 46.2716 36.8846C44.3412 38.1768 42.4305 39.4986 40.4213 40.6763C31.4509 45.9301 21.7004 49.2013 11.2132 50.5046C9.14093 50.763 7.04506 50.8701 4.96101 51.0067C3.58216 51.0953 2.69181 51.8337 2.71938 52.9487C2.74696 54.097 3.70034 54.8354 5.1383 54.7726C18.332 54.204 30.5841 50.7224 41.8711 44.3019C51.8422 38.6272 59.942 31.136 66.3636 22.0277C67.904 19.8457 69.5192 17.7154 71.0832 15.5481C71.5166 14.9463 72.0366 14.5624 72.8285 14.8097C73.577 15.046 73.7503 15.6294 73.7464 16.3161C73.7306 18.775 73.7346 21.2339 73.7424 23.6965C73.7464 25.0367 74.5697 25.9118 75.7871 25.8933C76.9768 25.8711 77.7608 25.022 77.7608 23.7113C77.7648 17.6157 77.7687 11.5164 77.7608 5.42081C77.7608 3.80738 76.5986 2.99881 74.9164 3.44555C68.8337 5.06637 62.751 6.69457 56.6722 8.32646C55.3997 8.66613 54.7496 9.64453 55.0609 10.682C55.3918 11.7785 56.4594 12.288 57.7871 11.9373C61.0609 11.0734 64.3268 10.1946 67.5967 9.31594C68.2822 9.13133 68.9322 9.07965 69.4168 9.68514C69.795 10.1577 69.7989 10.6709 69.4404 11.1472C64.4923 17.7228 60.139 24.7155 54.0208 30.4715C52.9768 31.4536 51.9053 32.4098 50.8258 33.3587C50.0773 34.0158 49.3406 34.0491 48.7615 33.4916C48.1823 32.9378 48.2611 32.1477 49.0333 31.5126C55.4982 26.1702 60.1784 19.495 64.9177 12.8677C64.9296 12.8455 64.9217 12.816 64.9453 12.6499Z" fill="#003011"/>
<path d="M2.74295 18.291C2.74295 19.2214 2.74295 20.0558 2.74295 20.953C3.70815 21.0269 4.64183 21.1228 5.58339 21.1635C6.40283 21.2004 6.78891 21.6139 7.06468 22.3117C7.60047 23.6778 8.18353 25.029 8.84538 26.3434C9.20389 27.0523 9.22358 27.6246 8.6681 28.2116C8.05746 28.8577 7.46258 29.5112 6.87558 30.1462C7.55319 30.7739 8.20322 31.3757 8.92023 32.0403C9.54269 31.5345 10.2439 30.988 10.9137 30.4121C11.5913 29.8324 12.2256 29.8693 13.041 30.2496C14.3805 30.8699 15.7791 31.3979 17.1934 31.8557C18.0207 32.1252 18.4659 32.5166 18.4935 33.351C18.525 34.1817 18.6274 35.0124 18.7062 35.8985C19.6438 35.8985 20.5499 35.8985 21.5466 35.8985C21.6215 35.0419 21.7279 34.1669 21.7712 33.2882C21.8106 32.4833 22.2715 32.1215 23.0516 31.8594C24.4856 31.3794 25.9038 30.8404 27.2748 30.2164C28.0667 29.8583 28.6852 29.8546 29.3313 30.401C29.9931 30.9622 30.6747 31.4975 31.3956 32.0846C32.026 31.4052 32.6366 30.7481 33.2945 30.0429C32.8296 29.5408 32.2623 28.8983 31.6596 28.2818C31.045 27.6541 31.045 27.0634 31.4468 26.2917C32.1166 25.0106 32.6721 23.6704 33.1921 22.3265C33.46 21.6323 33.8342 21.2041 34.6576 21.1635C35.5992 21.1192 36.5368 21.0269 37.5059 20.953C37.5059 20.0448 37.5059 19.1956 37.5059 18.291C36.5565 18.2172 35.6465 18.1212 34.7325 18.088C33.8342 18.0547 33.4482 17.6043 33.1684 16.8364C32.6918 15.5368 32.1284 14.2556 31.4902 13.0151C31.0096 12.0773 30.9741 11.7155 31.7226 10.9032C32.286 10.2903 32.8533 9.68114 33.4206 9.06457C32.7312 8.42584 32.0811 7.82404 31.3799 7.17054C30.7023 7.72066 30.005 8.27447 29.3234 8.84674C28.6734 9.39316 28.0549 9.38208 27.263 9.02395C25.892 8.40369 24.4698 7.86465 23.0358 7.38468C22.2558 7.12255 21.7988 6.75703 21.7633 5.95216C21.7239 5.0956 21.6254 4.23904 21.5466 3.34187C20.5933 3.34187 19.6872 3.34187 18.7062 3.34187C18.6313 4.19843 18.525 5.05129 18.4895 5.90416C18.458 6.73857 18.0049 7.12623 17.1816 7.39206C15.7672 7.84988 14.3687 8.37784 13.0292 8.99811C12.2137 9.37839 11.5795 9.39685 10.9018 8.82458C9.96816 8.03817 9.00296 7.28499 8.0614 6.50227C7.30106 5.87093 7.20257 5.17683 7.75017 4.58979C8.28201 4.02121 9.066 4.0249 9.82634 4.62301C10.4685 5.12514 11.0673 5.68264 11.741 6.14415C11.9655 6.29552 12.395 6.33613 12.6628 6.25122C13.5808 5.94847 14.4829 5.59403 15.3575 5.19898C15.5978 5.09191 15.8539 4.80023 15.8894 4.56025C16.0076 3.78492 16.0273 2.99851 16.0864 2.21579C16.1612 1.21155 16.6103 0.783269 17.6543 0.775885C19.3011 0.764809 20.9478 0.764809 22.5946 0.775885C23.5992 0.783269 24.068 1.21524 24.1428 2.15302C24.2019 2.9099 24.2847 3.66677 24.3044 4.42365C24.3162 4.87777 24.4659 5.11037 24.9583 5.26544C25.829 5.53496 26.6799 5.87093 27.4994 6.2586C27.9603 6.47643 28.24 6.42105 28.5946 6.10723C29.2013 5.56449 29.8434 5.05868 30.4895 4.56025C31.2223 3.99536 31.8802 4.02121 32.5618 4.65255C33.7554 5.75279 34.9413 6.86041 36.1153 7.98279C36.7456 8.58829 36.7692 9.20856 36.198 9.86944C35.6543 10.4971 35.091 11.1174 34.4961 11.7081C34.1809 12.0219 34.1415 12.2693 34.3503 12.668C34.7561 13.4397 35.1264 14.2335 35.4061 15.0494C35.5795 15.5552 35.8592 15.6844 36.3674 15.6955C37.175 15.7103 37.9826 15.7841 38.7903 15.8469C39.7358 15.9207 40.2006 16.3712 40.2085 17.2646C40.2243 18.8338 40.2243 20.4029 40.2085 21.9757C40.2006 22.8692 39.7358 23.3233 38.7903 23.3935C37.9551 23.4599 37.1199 23.5227 36.2847 23.5485C35.8395 23.5633 35.5992 23.6814 35.4377 24.1134C35.1185 24.9737 34.6734 25.7933 34.3464 26.6536C34.2597 26.8825 34.307 27.2627 34.4646 27.4547C35.0043 28.1193 35.6307 28.7211 36.198 29.3709C36.7692 30.0281 36.7456 30.6521 36.1153 31.2576C34.9452 32.3799 33.7594 33.4913 32.5618 34.5878C31.8802 35.2155 31.2144 35.2376 30.4895 34.6727C29.8237 34.1558 29.2013 33.5836 28.5079 33.1036C28.2833 32.9485 27.8539 32.8931 27.586 32.9818C26.6681 33.2845 25.7659 33.6389 24.8914 34.0414C24.6392 34.1558 24.3792 34.4807 24.3359 34.7392C24.2137 35.5404 24.2019 36.3563 24.131 37.1612C24.0562 37.9993 23.5716 38.446 22.6694 38.4571C20.9675 38.4755 19.2617 38.4755 17.5598 38.4571C16.6182 38.446 16.1533 37.9993 16.0824 37.0947C16.0194 36.312 15.9367 35.5293 15.917 34.7466C15.9051 34.3035 15.7121 34.1189 15.2787 33.9749C14.3884 33.6759 13.5374 33.2771 12.6471 32.9854C12.3792 32.8968 11.9458 32.9411 11.7252 33.0962C11.0319 33.5762 10.4133 34.1521 9.74755 34.669C9.01084 35.2376 8.34899 35.2155 7.67138 34.5952C6.49738 33.5134 5.33126 32.4206 4.17696 31.3203C3.44025 30.6188 3.42844 30.0281 4.1218 29.2602C4.64183 28.6805 5.16186 28.0972 5.71734 27.5433C6.02857 27.2369 6.0916 26.9895 5.87886 26.5834C5.46126 25.7896 5.09489 24.9663 4.7876 24.1282C4.63001 23.7036 4.40939 23.5596 3.9524 23.5485C3.1172 23.5227 2.28201 23.4488 1.44681 23.3898C0.501311 23.3233 0.020681 22.8766 0.0128018 21.9868C-0.00295662 20.3918 -0.00689237 18.7932 0.0167452 17.1982C0.028564 16.3564 0.513136 15.9133 1.4153 15.8469C2.41596 15.773 3.62541 15.9983 4.35818 15.5441C5.03185 15.1269 5.09489 13.9233 5.60703 13.1775C6.16646 12.369 5.98523 11.8336 5.30368 11.2392C4.81517 10.8146 4.40152 10.3088 3.98786 9.81775C3.45601 9.18641 3.51511 8.45538 4.10211 8.00126C4.68123 7.55082 5.40217 7.58405 5.96948 8.1674C6.9268 9.15318 7.84866 10.1722 8.77053 11.1875C9.22358 11.6859 9.15661 12.2102 8.88084 12.7936C8.21899 14.1965 7.60046 15.6143 7.00559 17.0431C6.74163 17.6745 6.34373 18.0363 5.60309 18.0769C4.68516 18.1286 3.74754 18.2135 2.74295 18.291Z" fill="#003011"/>
<path d="M76.4213 37.2459C74.6169 37.2459 72.8953 37.2459 71.1186 37.2459C71.1186 49.3522 71.1186 61.4474 71.1186 73.5906C72.8638 73.5906 74.6012 73.5906 76.4213 73.5906C76.4213 73.2805 76.4213 72.9999 76.4213 72.7193C76.4213 66.5462 76.4213 60.3693 76.4213 54.1962C76.4213 53.9599 76.4095 53.7236 76.4291 53.491C76.5001 52.7932 77.0319 52.3059 77.7292 52.2911C78.458 52.2763 79.0214 52.7785 79.0923 53.5132C79.112 53.7199 79.1002 53.9304 79.1002 54.1408C79.1002 60.8641 79.1002 67.5873 79.1002 74.3143C79.1002 75.8022 78.7259 76.1529 77.1225 76.1529C74.7785 76.1529 72.4344 76.1566 70.0864 76.1529C68.8336 76.1492 68.3766 75.7209 68.3766 74.5395C68.3727 61.7982 68.3727 49.0568 68.3766 36.3155C68.3766 35.1304 68.8297 34.7058 70.0864 34.7058C72.5447 34.7021 74.9991 34.6984 77.4574 34.7058C78.6117 34.7095 79.0923 35.1562 79.0923 36.2306C79.1002 40.2328 79.0963 44.235 79.0923 48.2409C79.0923 49.2082 78.5526 49.7953 77.7174 49.7731C76.9137 49.751 76.4173 49.1898 76.4134 48.2557C76.4173 44.6079 76.4213 40.9712 76.4213 37.2459Z" fill="#003011"/>
<path d="M64.3583 60.5246C64.3583 65.1582 64.3583 69.788 64.3583 74.4216C64.3583 75.7544 63.9406 76.1458 62.5145 76.1495C60.1153 76.1532 57.7121 76.1532 55.3129 76.1495C54.1114 76.1458 53.6425 75.7064 53.6425 74.5803C53.6386 65.1582 53.6386 55.7397 53.6425 46.3176C53.6425 45.1878 54.1114 44.7522 55.3169 44.7485C57.7752 44.7411 60.2295 44.7411 62.6879 44.7485C63.8894 44.7522 64.3622 45.1915 64.3622 46.3176C64.3622 51.0508 64.3583 55.7877 64.3583 60.5246ZM61.6202 73.6019C61.6202 64.7853 61.6202 56.0425 61.6202 47.296C59.8395 47.296 58.1219 47.296 56.3648 47.296C56.3648 56.0794 56.3648 64.8259 56.3648 73.6019C58.1297 73.6019 59.8474 73.6019 61.6202 73.6019Z" fill="#003011"/>
<path d="M9.41268 19.587C9.4245 14.0747 14.2584 9.57041 20.1481 9.5741C26.0693 9.58148 30.8835 14.1338 30.852 19.6977C30.8204 25.2063 25.9747 29.6922 20.0732 29.6737C14.1993 29.6515 9.40086 25.114 9.41268 19.587ZM12.3043 21.0896C12.6077 23.8661 15.8894 26.9083 18.7377 26.9379C18.9347 25.1361 19.2144 24.6709 20.1087 24.6525C21.003 24.634 21.2748 25.0697 21.5466 26.9637C24.5722 26.7422 27.7988 23.711 27.9603 20.905C26.9557 20.8238 25.5768 21.1155 25.5414 19.6608C25.5059 18.1212 26.9675 18.4203 27.9997 18.3354C27.523 15.2562 24.588 12.5314 21.4915 12.2656C21.4363 13.2145 21.7279 14.503 20.1993 14.5547C18.5368 14.6101 18.8559 13.2329 18.7613 12.2582C15.5309 12.6274 12.2531 15.7546 12.3437 18.3206C14.1993 18.4683 14.7311 18.7193 14.743 19.539C14.7469 19.827 14.6445 20.2885 14.4396 20.3808C13.7778 20.6835 13.045 20.857 12.3043 21.0896Z" fill="#003011"/>
<path d="M46.9373 56.0793C45.1212 56.0793 43.3996 56.0793 41.6307 56.0793C41.6307 61.9201 41.6307 67.7351 41.6307 73.5944C43.372 73.5944 45.0936 73.5944 46.9373 73.5944C46.9373 72.6492 46.9373 71.693 46.9373 70.7404C46.9373 70.4266 46.9176 70.1091 46.9492 69.799C47.0201 69.1012 47.5677 68.6249 48.265 68.6175C48.9623 68.6138 49.5769 69.0901 49.5926 69.7805C49.632 71.5047 49.636 73.2326 49.5926 74.9605C49.5729 75.6841 49.0608 76.1309 48.2847 76.1382C45.6058 76.1641 42.9268 76.1641 40.2479 76.1382C39.3379 76.1309 38.8966 75.5844 38.8966 74.595C38.8927 70.829 38.8927 67.0595 38.8927 63.2935C38.8927 60.5983 38.8887 57.9031 38.8927 55.2116C38.8927 53.9674 39.33 53.5465 40.6261 53.5428C43.0529 53.5391 45.4836 53.5391 47.9104 53.5428C49.1553 53.5465 49.6084 53.9785 49.6123 55.1636C49.6163 58.276 49.6163 61.3884 49.6123 64.5009C49.6123 65.5014 49.1317 66.0737 48.3044 66.0921C47.4456 66.1106 46.9373 65.5199 46.9373 64.4787C46.9373 61.7097 46.9373 58.9369 46.9373 56.0793Z" fill="#003011"/>
<path d="M34.8743 67.3181C34.8743 69.7253 34.8783 72.1325 34.8743 74.5398C34.8704 75.7175 34.4134 76.1458 33.1567 76.1458C30.7259 76.1495 28.2991 76.1495 25.8684 76.1458C24.6117 76.1421 24.1586 75.7138 24.1547 74.5324C24.1507 69.7438 24.1507 64.9552 24.1547 60.1666C24.1547 58.9888 24.6117 58.5642 25.8724 58.5605C28.3031 58.5568 30.7299 58.5568 33.1606 58.5605C34.4173 58.5642 34.8704 58.9888 34.8743 60.1703C34.8783 62.5553 34.8743 64.9367 34.8743 67.3181ZM26.8927 61.108C26.8927 65.3133 26.8927 69.4521 26.8927 73.5724C28.6931 73.5724 30.4305 73.5724 32.1481 73.5724C32.1481 69.3856 32.1481 65.2653 32.1481 61.108C30.3871 61.108 28.6695 61.108 26.8927 61.108Z" fill="#003011"/>
<path d="M20.1323 69.8692C20.1323 71.4383 20.1363 73.0075 20.1323 74.5803C20.1284 75.7064 19.6596 76.1457 18.458 76.1494C15.9997 76.1568 13.5453 76.1568 11.087 76.1494C9.88544 76.1457 9.41662 75.7064 9.41268 74.5803C9.40874 71.442 9.40874 68.3001 9.41268 65.1618C9.41662 64.0357 9.8815 63.5964 11.087 63.5927C13.5453 63.5853 15.9997 63.5853 18.458 63.5927C19.6596 63.5964 20.1284 64.0357 20.1323 65.1618C20.1402 66.7273 20.1323 68.2964 20.1323 69.8692ZM17.3943 73.6019C17.3943 71.0728 17.3943 68.6065 17.3943 66.1624C15.5979 66.1624 13.8565 66.1624 12.1389 66.1624C12.1389 68.673 12.1389 71.1208 12.1389 73.6019C13.8999 73.6019 15.6176 73.6019 17.3943 73.6019Z" fill="#003011"/>
<path d="M20.1363 15.8582C20.8651 15.8582 21.5703 16.3898 21.4364 17.1024C21.1212 18.797 22.0549 19.8456 23.2959 20.8092C23.5283 20.9901 23.7489 21.208 23.9144 21.4442C24.3005 21.9981 24.2374 22.5519 23.745 23.0134C23.2525 23.4712 22.5986 23.5856 22.0785 23.15C21.0227 22.2602 20.0418 21.2966 19.0608 20.3366C18.8914 20.1705 18.8165 19.8604 18.8087 19.613C18.7771 18.7786 18.7732 17.9405 18.8047 17.1061C18.8362 16.3603 19.4075 15.8582 20.1363 15.8582Z" fill="#003011"/>
</svg>
