<svg width="89" height="96" viewBox="0 0 89 96" fill="none" xmlns="http://www.w3.org/2000/svg">
<path d="M18.5676 42.2419C18.7922 41.6143 19.1349 40.4143 19.651 39.2883C20.0489 38.4206 20.6674 37.6416 21.1875 36.8183C22.129 35.323 22.1211 33.8277 21.1717 32.3361C20.6674 31.546 20.1513 30.7633 19.6707 29.9584C17.3661 26.1039 18.9182 21.5959 23.1927 19.7462C24.0515 19.3733 24.9183 19.0151 25.7968 18.6865C27.7508 17.9592 28.653 16.5747 28.7948 14.6548C28.8775 13.5398 28.9563 12.4137 29.2045 11.3283C30.0752 7.52913 34.0345 5.14036 38.112 5.89354C39.2466 6.10399 40.3733 6.35874 41.5079 6.56919C43.1704 6.87932 44.5532 6.38089 45.676 5.21789C46.3575 4.50902 47.0076 3.77429 47.697 3.06911C50.8408 -0.157755 55.8835 -0.20944 59.0824 2.95466C59.831 3.69307 60.5165 4.49056 61.2492 5.24374C62.3759 6.40674 63.7666 6.87932 65.4252 6.56549C66.4889 6.36243 67.5486 6.11876 68.6163 5.92677C73.4147 5.05175 77.5749 8.04971 77.9255 12.6279C77.9886 13.4475 78.0634 14.2671 78.158 15.0868C78.3431 16.7297 79.2335 17.9112 80.8487 18.5832C81.8415 18.9967 82.8579 19.3659 83.8389 19.8015C87.9439 21.6254 89.4882 26.0781 87.3175 29.8218C86.8133 30.6894 86.2499 31.5238 85.7141 32.373C84.7686 33.872 84.7844 35.3636 85.7338 36.8552C86.2538 37.6748 86.7975 38.4834 87.286 39.3178C89.504 43.0911 87.9557 47.5622 83.7995 49.4082C82.9131 49.8033 82.003 50.1577 81.0969 50.5047C79.2098 51.2284 78.2525 52.5428 78.1225 54.4405C78.0437 55.5555 77.9492 56.6779 77.7167 57.7707C76.9131 61.5625 72.9459 64.0325 68.8802 63.3125C67.7102 63.1058 66.548 62.851 65.3779 62.6221C63.7942 62.312 62.4587 62.7587 61.3674 63.8368C60.6425 64.553 59.9767 65.321 59.2676 66.0483C55.9701 69.434 50.892 69.4229 47.5985 66.0188C46.913 65.3136 46.2709 64.5678 45.5736 63.8737C44.4587 62.7624 43.0956 62.3009 41.4724 62.6258C40.3418 62.851 39.2111 63.0984 38.0765 63.2977C33.5775 64.0915 29.3976 61.1231 29.0036 56.8588C28.9248 56.0059 28.846 55.1531 28.7672 54.3002C28.5978 52.5022 27.676 51.2173 25.8598 50.5232C24.8552 50.1392 23.8427 49.7553 22.8775 49.2901C20.1001 47.9498 18.7173 45.7715 18.5676 42.2419ZM21.8335 42.84C21.999 44.5088 22.9248 45.8454 24.5558 46.5505C25.5762 46.9899 26.628 47.3665 27.6405 47.8169C30.0988 48.9135 31.588 50.7263 32.0016 53.2553C32.1829 54.3593 32.2577 55.478 32.3759 56.593C32.632 59.0371 34.9642 60.6764 37.525 60.1927C38.4862 60.0118 39.4436 59.794 40.4009 59.5872C43.5289 58.919 46.1566 59.7164 48.284 61.9575C48.8907 62.5963 49.4777 63.2534 50.0923 63.8885C51.9833 65.849 54.9537 65.8342 56.8447 63.8553C57.5027 63.1685 58.133 62.4596 58.7909 61.7766C60.0358 60.4844 61.5683 59.4912 63.4199 59.4949C65.3543 59.4986 67.3004 59.8494 69.219 60.1743C71.9767 60.6432 74.309 59.0629 74.5532 56.4527C74.636 55.5666 74.6951 54.6805 74.8014 53.7981C75.1481 50.9478 76.6924 48.8987 79.4974 47.7135C80.3917 47.337 81.3096 47.0047 82.2039 46.6244C84.8041 45.5168 85.6668 43.0246 84.2604 40.706C83.7404 39.8494 83.1534 39.0224 82.653 38.1585C81.2781 35.7771 81.2821 33.3773 82.6727 30.9996C83.1809 30.1356 83.7601 29.3086 84.2762 28.4484C85.6471 26.163 84.7962 23.693 82.2591 22.5927C81.2742 22.1645 80.2499 21.81 79.2689 21.3744C76.8894 20.3147 75.3963 18.5758 74.9433 16.1316C74.7384 15.0314 74.6635 13.9127 74.5611 12.7977C74.3208 10.1246 71.9728 8.47429 69.1836 9.04287C68.2578 9.23117 67.3359 9.43792 66.4101 9.62622C63.3214 10.2465 60.7253 9.449 58.6255 7.23745C57.9951 6.57288 57.3924 5.88615 56.7502 5.23266C54.9143 3.36447 51.9794 3.37556 50.1435 5.25482C49.4344 5.98215 48.7725 6.75748 48.0516 7.47374C46.2157 9.29393 43.9662 10.1099 41.303 9.73328C40.0581 9.55607 38.8329 9.23855 37.5959 9.00226C34.9721 8.50014 32.632 10.132 32.3799 12.6352C32.2971 13.4549 32.2262 14.2745 32.1474 15.0942C31.8559 18.1512 30.2603 20.3332 27.2308 21.5627C26.4271 21.8876 25.6195 22.2125 24.8158 22.5411C22.1054 23.645 21.2229 26.163 22.7042 28.5776C23.1257 29.2606 23.563 29.9363 23.9964 30.6119C25.7219 33.2887 25.7062 35.958 23.9767 38.6274C23.5236 39.3289 23.0273 40.0156 22.649 40.754C22.3024 41.4112 22.0975 42.1385 21.8335 42.84Z" fill="#003011"/>
<path d="M54.4455 79.0812C57.5893 77.8296 60.6504 76.6112 63.7075 75.3891C68.1632 73.6132 72.6031 71.8078 77.0706 70.0615C81.1639 68.4665 85.4502 70.5008 86.4508 74.4587C87.2151 77.4751 85.5053 80.4694 82.2236 81.7911C77.9689 83.5043 73.7023 85.1915 69.4436 86.8936C62.892 89.5076 56.3247 92.0883 49.7929 94.7503C47.76 95.5773 45.7902 95.6918 43.651 95.1564C34.5703 92.8784 25.4698 90.6632 16.3693 88.4627C15.8414 88.3372 15.1835 88.411 14.6635 88.5919C13.1231 89.1347 11.6261 89.7882 10.1014 90.3789C8.7344 90.9105 7.97012 90.641 7.39887 89.3931C5.01148 84.1651 2.63984 78.9298 0.272144 73.6945C-0.299098 72.4318 0.0160728 71.697 1.33978 71.1654C6.43762 69.1237 11.5236 67.0635 16.6412 65.0698C20.2538 63.6631 23.827 63.8625 27.3293 65.5091C31.8716 67.6468 36.3943 69.8252 40.9997 71.841C43.8244 73.0779 46.7673 74.0858 49.6865 75.1233C51.806 75.8765 53.5906 76.9324 54.4455 79.0812ZM9.97931 86.9896C11.2794 86.4801 12.5322 86.0592 13.714 85.5054C14.7541 85.018 15.7232 84.9959 16.846 85.2765C26.1986 87.6098 35.5631 89.91 44.9432 92.1511C45.8651 92.3726 47.0352 92.3578 47.894 92.0182C58.9564 87.6726 69.9833 83.2532 81.0142 78.8375C82.917 78.0769 83.7246 76.2826 82.9919 74.6285C82.2473 72.9413 80.2617 72.2287 78.3195 73.0003C70.7003 76.0278 63.0851 79.0664 55.4817 82.1345C55.0719 82.3006 54.6701 82.74 54.5046 83.1387C53.2518 86.1847 49.7929 87.9347 46.5703 86.8308C42.2564 85.354 38.0253 83.6667 33.7745 82.0422C32.8408 81.6841 32.498 80.8164 32.8329 80.0079C33.156 79.2252 34.066 78.8449 35.0194 79.1402C35.5827 79.3138 36.1304 79.5501 36.6819 79.7568C40.1645 81.0712 43.6471 82.3782 47.1218 83.6999C48.3431 84.1651 49.4659 84.047 50.4587 83.2274C51.3608 82.4816 51.613 81.5142 51.353 80.4435C51.0614 79.2584 50.1002 78.6972 48.9734 78.2726C42.0792 75.6734 35.0706 73.3105 28.6333 69.7513C27.7272 69.2492 26.7817 68.8135 25.848 68.3594C23.1888 67.0635 20.4783 66.9786 17.7246 68.0751C14.4311 69.3858 11.1415 70.7002 7.84799 72.0109C6.54004 72.5351 5.2321 73.0594 3.89263 73.5985C5.94123 78.1102 7.94254 82.5185 9.97931 86.9896Z" fill="#003011"/>
<path d="M29.7797 34.6326C29.7403 22.3971 40.2748 12.4802 53.3818 12.4138C66.4259 12.3473 77.0588 22.2421 77.1219 34.5034C77.1849 46.7869 66.5874 56.7628 53.4725 56.7702C40.389 56.7702 29.8191 46.8977 29.7797 34.6326ZM33.1559 34.5625C33.1323 45.0332 42.154 53.5544 53.3227 53.6024C64.6136 53.6541 73.7377 45.1772 73.7496 34.6142C73.7653 24.0881 64.7239 15.5963 53.4843 15.5705C42.2682 15.5447 33.1796 24.0364 33.1559 34.5625Z" fill="#003011"/>
<path d="M51.2269 37.9959C54.7646 34.6768 58.0857 31.5644 61.4107 28.4519C61.6589 28.2193 61.8914 27.9609 62.1829 27.7837C62.9196 27.3296 63.6681 27.3739 64.2985 27.9498C64.9249 28.5258 65.0155 29.2162 64.5309 29.9214C64.3418 30.1946 64.0818 30.4272 63.8336 30.6561C60.2367 34.0307 56.6399 37.4015 53.0391 40.7724C51.7075 42.0203 50.9984 42.0203 49.6826 40.7945C47.374 38.6347 45.0535 36.4785 42.7646 34.3002C41.6812 33.2701 41.9925 31.7231 43.3674 31.5385C43.9465 31.461 44.7541 31.7785 45.2032 32.1699C47.0273 33.7574 48.7568 35.441 50.5099 37.1025C50.7541 37.3351 50.9354 37.6267 51.2269 37.9959Z" fill="#003011"/>
</svg>
